<svg version="1.1" id="Layer_1" xmlns="http://www.w3.org/2000/svg" xmlns:xlink="http://www.w3.org/1999/xlink" x="0px" y="0px"
	 viewBox="0 0 500 500" xml:space="preserve">
<g style="fill: none; stroke: url(#gradient); stroke-width: 1px;">
	<defs>
		<linearGradient id="gradient" gradientTransform="rotate(90)">
			<stop offset="25%" stop-color="#2DE781"/>
			<stop offset="75%" stop-color="#E72DCD"/>
			
		</linearGradient>
	</defs>
	<path class="st0" d="M357.01,452.86c-3.19-0.24-8.94,0.45-9.4-0.25c-0.46-0.7,0.59-1.01,0.59-1.01s0.39-0.58,0.23-1.04
		c0,0-0.61-0.23-0.81-0.1c-0.2,0.13-0.78,1.15-1.18,0.98c-0.4-0.17-0.91-0.77-0.4-2.08s1.43-8.9-0.05-12.53
		c-1.48-3.62-3.14-4.27-3.79-3.79c-0.64,0.49-0.22,1.66-0.58,1.64s-1.01-0.28-1.54,0.53s-0.29,1.26-0.29,1.26
		c-0.43,0.11-0.81,0.38-1.05,0.76c-0.35,0.6-0.33,0.79-0.33,0.79s-1.89,2.11-1.62,3.87c0.28,1.76,1.13,3.49,1.82,4
		c0,0-5.15-0.57-5.54,0.32s-0.35,1.46-1.72,1.28c0,0,0.3,1.4-0.33,1.96c-0.46,0.36-1,0.6-1.57,0.7c0,0,0.57,0.5,0,1.29
		c-0.57,0.78-4.1,0.6-4.94,1.51c-0.84,0.92-0.72,1.25-0.13,1.4s2.27-2.14,3.99-1.58c1.72,0.56,1.51,2.48,0.93,3.74
		c0,0,1.29-0.43,1.88,0.16c0.59,0.59,1.04,1.4,1.89,0.9c0.84-0.5,7.32-5.76,8.97-4.25c1.65,1.51-3.5,4.14-2.85,4.95
		c0.65,0.8,3.46-3.86,4.71-2.83s-0.82,4.64-2.37,6.46c-1.54,1.82-2.35,2.16-2.5,2.74s0.62,1.28,0.35,1.74
		c-0.17,0.29-0.39,0.53-0.66,0.73c0,0,3.23-0.05,3.79,1.75s-1.3,3.87-1.51,4.67c-0.21,0.8,1.23,1.08,1.67-0.33
		c0.44-1.41,0.78-4.35,1.53-4.9s1.39,0.68,1.39,0.68s0.85-1.91,2.51-1.14c0,0-0.19-1.71,1.8-2.17c0,0-0.31-0.86,0.04-1.46
		c0.35-0.6,1.01-0.47,1.1-0.84c0.09-0.38-0.39-3.06,0.28-3.04c0.67,0.02,0.48,1.51,2.29,2.12c1.8,0.61,6.61-1,6.6-2.79
		c0,0,1.01,0.59,1.94-0.05c0.93-0.64,0.73-1.49,0.73-1.49s1.34,0.34,1.99-0.89C365.48,456.02,360.2,453.09,357.01,452.86z"/>
	<path class="st0" d="M421.3,359.37c-3.8,0.73-10.3,3.36-11.06,2.69s0.36-1.37,0.36-1.37s0.28-0.8-0.06-1.28
		c0,0-0.78-0.07-0.97,0.14c-0.19,0.22-0.55,1.59-1.07,1.51c-0.52-0.08-1.31-0.61-1.13-2.3c0.18-1.69-1.14-10.85-4.02-14.61
		c-2.88-3.76-5.02-4-5.63-3.22c-0.61,0.77,0.27,2.02-0.15,2.1c-0.42,0.08-1.26,0-1.63,1.11c-0.37,1.11,0.06,1.55,0.06,1.55
		c-0.47,0.26-0.83,0.69-0.99,1.21c-0.21,0.81-0.14,1.03-0.14,1.03s-1.54,3.06-0.66,5.03c0.88,1.97,2.43,3.71,3.39,4.1
		c0,0-6.2,0.97-6.37,2.13s0.06,1.82-1.61,2.05c0,0,0.8,1.54,0.23,2.4c-0.42,0.57-0.97,1.02-1.62,1.31c0,0,0.83,0.42,0.4,1.51
		s-4.6,1.99-5.3,3.34c-0.7,1.35-0.44,1.69,0.29,1.68c0.73-0.01,1.98-3.22,4.16-3.11c2.18,0.11,2.57,2.41,2.27,4.07
		c0,0,1.37-0.91,2.24-0.41c0.87,0.5,1.66,1.31,2.49,0.46c0.83-0.85,6.72-9.04,9.13-7.8s-2.78,5.94-1.77,6.68s2.81-5.6,4.6-4.8
		s0.5,5.67-0.72,8.29c-1.22,2.61-2.06,3.26-2.06,4c0.01,0.74,1.13,1.3,0.96,1.92c-0.11,0.39-0.29,0.75-0.55,1.06
		c0,0,3.76-1.08,4.99,0.85s-0.3,4.93-0.3,5.93c0,1,1.77,0.87,1.85-0.92c0.08-1.78-0.46-5.33,0.24-6.21c0.7-0.88,1.84,0.35,1.84,0.35
		s0.39-2.5,2.56-2.13c0,0-0.76-1.94,1.42-3.1c0,0-0.63-0.9-0.42-1.71c0.21-0.81,1.03-0.86,1.01-1.33c-0.02-0.47-1.43-3.45-0.64-3.64
		s1.04,1.61,3.34,1.75c2.3,0.14,7.4-3.25,6.82-5.34c0,0,1.37,0.36,2.25-0.67c0.88-1.04,0.39-1.97,0.39-1.97s1.68-0.03,2.04-1.66
		C432.17,360.37,425.1,358.64,421.3,359.37z"/>
	<path class="st0" d="M383.79,414.34c-0.1-0.02-0.18,0.05-0.2,0.14c0,0,0,0,0,0c-0.36,2.27-1.31,3.94-2.84,4.99
		c-1.88,1.28-4.2,1.32-5.47,1.21c2.57-0.71,3.82-2.14,4.44-3.28c0.45-0.81,0.7-1.72,0.72-2.65c0-0.1-0.08-0.17-0.17-0.17
		c-0.1,0-0.17,0.08-0.17,0.17c-0.03,0.87-0.26,1.72-0.68,2.48c-0.84,1.54-2.3,2.59-4.34,3.12c-0.19-0.16-0.43-0.25-0.68-0.25
		c-0.78-0.08-2.1-1.01-1.32-2.49c0.78-1.48,2.72-5.9,4.27-10.17c1.55-4.27,1.09-13.44,0.54-13.05c-0.55,0.39-4.27,3.5-4.43,4.19
		s-3.11,2.8-3.11,2.8s-0.78-7.22-2.64-12.35s-5.59-8.23-6.37-8.08c-0.78,0.15-3.81,3.19-4.04,7.3s-1.01,7.22-1.79,8.62
		c-0.78,1.4-1.4,2.49-0.93,3.57s2.87,3.03,2.8,3.34c-0.08,0.31-4.82-1.01-6.76,1.24c-1.94,2.25-0.78,4.04-0.78,4.04
		s-2.72-0.39-3.11,1.63c-0.39,2.02,1.01,2.8,1.01,2.8s-2.25,0.62-1.86,2.1c0.39,1.48,1.48,1.24,1.48,1.71
		c0,0.47-1.86,1.32-1.24,2.64c0.62,1.32,3.34,1.24,3.34,2.02c0,0.78,0.54,3.81,3.96,3.57c3.42-0.23,7.69-2.95,8.78-3.57
		c1.09-0.62,4.35-1.79,5.28-0.31c0,0,0.85,1.01-1.63,1.71c-2.48,0.7-5.98,2.33-5.9,2.95c0.08,0.62,8.08-2.8,9.71-2.8
		c1.63,0,2.8-1.79,3.11-1.86s1.94,0.54,2.33-0.23c0.07-0.13,0.12-0.26,0.15-0.4c0.28,0.03,0.62,0.05,0.99,0.05
		c1.35,0,3.17-0.25,4.74-1.32c1.61-1.1,2.62-2.86,2.99-5.22C383.95,414.44,383.88,414.35,383.79,414.34z"/>
	<path class="st0" d="M64.78,99.88c2.49,1.71,5.39,2.1,7.53,2.1c0.59,0,1.12-0.03,1.57-0.07c0.05,0.22,0.13,0.44,0.23,0.64
		c0.62,1.23,3.21,0.25,3.7,0.37c0.49,0.12,2.34,2.96,4.94,2.96s15.31,5.43,15.43,4.44s-5.43-3.58-9.38-4.69
		c-3.95-1.11-2.58-2.73-2.58-2.73c1.48-2.34,6.67-0.5,8.4,0.5c1.73,1.01,8.52,5.3,13.95,5.68c5.43,0.38,6.3-4.44,6.3-5.68
		c0-1.23,4.32-1.11,5.3-3.21c0.98-2.1-1.98-3.46-1.98-4.2s1.73-0.37,2.34-2.72c0.62-2.34-2.96-3.33-2.96-3.33s2.22-1.23,1.61-4.44
		s-4.94-2.59-4.94-2.59s1.85-2.84-1.23-6.42c-3.09-3.58-10.62-1.48-10.74-1.98c-0.12-0.49,3.7-3.58,4.44-5.3
		c0.74-1.72-0.25-3.46-1.48-5.68s-2.47-7.16-2.84-13.7c-0.37-6.54-5.18-11.36-6.42-11.61c-1.23-0.25-7.16,4.69-10.12,12.84
		c-2.96,8.15-4.2,19.63-4.2,19.63s-4.69-3.33-4.94-4.44c-0.25-1.11-6.17-6.06-7.04-6.67s-1.61,13.95,0.86,20.74
		c2.47,6.79,5.55,13.83,6.79,16.17c1.24,2.35-0.86,3.83-2.1,3.95c-0.4,0.01-0.78,0.16-1.08,0.42c-3.25-0.85-5.57-2.51-6.9-4.96
		c-0.67-1.21-1.04-2.57-1.09-3.95c0-0.15-0.12-0.28-0.27-0.29s-0.28,0.12-0.29,0.27l0,0c0.03,1.47,0.42,2.92,1.14,4.21
		c0.97,1.8,2.97,4.07,7.05,5.2c-2.02,0.17-5.72,0.11-8.7-1.93c-2.43-1.67-3.95-4.33-4.51-7.93c-0.03-0.15-0.18-0.25-0.33-0.21
		c-0.14,0.03-0.23,0.16-0.22,0.3C60.63,95.33,62.23,98.12,64.78,99.88z"/>
	<path class="st0" d="M395.3,232.14c-1.61-0.32-4.48-1.18-6.35-3.43c-1.51-1.84-2.11-4.25-1.75-7.17c0.02-0.12-0.07-0.24-0.2-0.25
		c-0.12-0.02-0.24,0.07-0.25,0.2l0,0c-0.37,3.05,0.25,5.58,1.86,7.52c1.56,1.88,3.73,2.83,5.4,3.31c0.46,0.13,0.88,0.22,1.24,0.29
		c-0.01,0.18,0,0.37,0.04,0.55c0.21,1.1,2.44,0.9,2.8,1.11c0.36,0.21,1.17,2.83,3.19,3.4s10.71,7.62,11.03,6.88
		c0.32-0.74-3.43-3.99-6.26-5.73c-2.83-1.74-1.42-2.69-1.42-2.69c1.67-1.5,5.3,1.1,6.42,2.25c1.12,1.15,5.45,6.02,9.59,7.51
		c4.14,1.49,5.89-2.06,6.16-3.03s3.61,0.09,4.84-1.32s-0.77-3.13-0.61-3.71c0.16-0.58,1.43,0.1,2.43-1.59
		c1-1.69-1.57-3.25-1.57-3.25s2-0.47,2.23-3.1c0.23-2.64-3.27-3.11-3.27-3.11s2.07-1.8,0.46-5.27c-1.61-3.47-7.94-3.51-7.92-3.92
		c0.01-0.41,3.68-1.97,4.64-3.15c0.96-1.18,0.58-2.75,0.11-4.75s-0.33-6.12,0.83-11.3c1.16-5.17-1.51-9.99-2.42-10.46
		c-0.91-0.47-6.61,2.06-10.73,7.75c-4.11,5.69-7.62,14.35-7.62,14.35s-2.91-3.63-2.86-4.54c0.06-0.91-3.46-6.08-4-6.75
		c-0.54-0.67-4.34,10.5-3.93,16.34c0.42,5.83,1.26,11.99,1.7,14.09c0.44,2.1-1.51,2.78-2.51,2.61c-0.31-0.08-0.64-0.05-0.93,0.09
		c-2.34-1.38-3.79-3.19-4.27-5.39c-0.25-1.09-0.24-2.23,0.03-3.31c0.04-0.12-0.03-0.24-0.15-0.28s-0.24,0.03-0.28,0.15
		c-0.3,1.16-0.32,2.37-0.05,3.53C391.32,228.15,392.37,230.36,395.3,232.14z"/>
	<path class="st0" d="M440.41,302.52c0.25-1.77-0.12-4.24,1.22-6.84s1.6-6.1,1.01-6.77c-0.59-0.66-2.05-0.09-6.04,1.39
		s-6.64,3.98-9.26,7.79s-5.55,7.53-5.88,8.04s-0.72-0.03-1.07-0.45c-0.35-0.42-0.4-0.32-0.4-0.32c-1.09,0.08-0.56,0.76-0.73,0.99
		c-0.17,0.23-0.32-0.22-2.19-2.93c-1.86-2.71-3.32-6.74-5.28-9.25c-1.96-2.51-6.47-5.59-7.21-5.96c-0.74-0.37-1.01,2.94,0.95,7.79
		c1.96,4.85,2.78,8.94,3.26,9.84s2.3,1.69,2.3,1.69c-0.47,0.46-0.86,0.99-1.15,1.59c-0.49,0.99-0.28,4.29,0.7,7.18
		c0.98,2.89,5.44,7.67,6.84,6.58c1.4-1.09,2.47-8.25,2.69-8.83c0.22-0.58,0.81-1.26,1.26-0.92c0.45,0.34,0.55,6.73,1.05,6.86
		s0.74-4,0.74-4c1.63,0.07,3.21,4.97,5.93,5.81s2.87-1.06,2.87-1.06s0.72,1.65,2.42,0.95s1.54-2.5,1.54-2.5s1.68,0.09,2.37-0.92
		c0.69-1.01,0.36-2.59,0.36-2.59s0.81-0.15,1.67-1.39c0.86-1.24-0.66-3.53-0.66-3.53s0.59-0.32,0.34-1.68s-2.95-2.25-2.83-2.75
		C437.37,305.82,440.14,304.3,440.41,302.52z"/>
	<path class="st0" d="M353.73,130.21c0.61,0.96,2.71,1.64,2.71,1.64c-0.48,0.55-0.86,1.18-1.12,1.87c-0.44,1.14,0.12,4.78,1.48,7.87
		c1.37,3.09,6.77,7.95,8.22,6.6s1.93-9.37,2.11-10.02c0.18-0.65,0.76-1.48,1.3-1.14s1.26,7.39,1.83,7.48
		c0.57,0.09,0.44-4.49,0.44-4.49c1.81-0.09,4.04,5.18,7.13,5.85c3.09,0.67,3.08-1.5,3.08-1.5s0.96,1.75,2.78,0.81
		c1.81-0.94,1.46-2.92,1.46-2.92s1.87-0.07,2.52-1.26c0.66-1.2,0.14-2.9,0.14-2.9s0.89-0.25,1.71-1.7c0.83-1.45-1.08-3.83-1.08-3.83
		s0.62-0.42,0.21-1.89c-0.41-1.47-3.48-2.2-3.4-2.76c0.09-0.56,3.01-2.52,3.12-4.51c0.11-1.98-0.55-4.68,0.68-7.69
		s1.17-6.91,0.44-7.57s-2.27,0.1-6.54,2.13c-4.27,2.03-6.95,5.05-9.48,9.53c-2.52,4.49-5.41,8.87-5.71,9.47
		c-0.3,0.59-0.8,0.04-1.23-0.39c-0.42-0.43-0.47-0.31-0.47-0.31c-1.19,0.19-0.55,0.9-0.72,1.17c-0.17,0.27-0.38-0.21-2.71-3.03
		c-2.33-2.82-4.33-7.13-6.75-9.71s-7.71-5.55-8.56-5.88c-0.86-0.33-0.84,3.35,1.82,8.52S353.12,129.24,353.73,130.21z"/>
	<path class="st0" d="M210.11,137.93c-0.52-3.46-4.26-6.13-4.26-6.13s1.41-1.89,0.82-6.15s-8.2-6.12-8.2-6.12s0.61-1.82-2.54-4.17
		c-3.15-2.36-10.55,0.97-11.25-0.3c-0.7-1.27,2.2-9.84-0.69-14.07s-8.46-8.68-10.67-16.72c-2.21-8.05-8.45-15.9-10.98-16.13
		s-4.46,3.78-9.97,14.59c-5.51,10.82-6.24,21.2-4.37,34.26c1.87,13.06,2.88,26.55,3.21,28.22c0.33,1.67-1.59,1.32-3.13,1.12
		c-1.01-0.14-1.32-0.05-1.41,0.03c-1.79-1.49-4.34-3.96-5.85-7c-3.39-6.84-1.41-10.81-1.39-10.85c0.12-0.23,0.03-0.52-0.2-0.64
		c-0.23-0.12-0.52-0.03-0.64,0.2l0,0c-0.09,0.18-2.22,4.44,1.39,11.7c1.61,3.24,4.25,5.81,6.11,7.34c-0.06,0.09-0.11,0.18-0.15,0.27
		c-2.21-0.82-4.28-1.95-6.17-3.36c-5.35-4.02-8.25-9.65-8.6-16.73c-0.01-0.26-0.23-0.46-0.49-0.45c-0.26,0.01-0.46,0.23-0.45,0.49
		c0.46,9.21,5.15,14.58,9,17.47c2,1.49,4.21,2.68,6.56,3.53c0.21,0.73,1.15,1.09,1.2,1.58c0.07,0.8-1.1,0.16-10.24-1.91
		c-9.14-2.07-19.97-7.73-28.93-9.2c-8.97-1.47-24.39,0.76-26.65,1.44s3.53,8.15,17.06,14.51s23.13,13.38,25.88,14.39
		s8.1-0.91,8.1-0.91c-0.1,1.87,0.11,3.75,0.65,5.55c0.89,3.03,7.73,9.54,15.35,13.7c7.62,4.16,26.25,5.57,27.08,0.57
		c0.83-5-10.76-22.1-11.4-23.73c-0.64-1.62-0.76-4.21,0.85-4.35s14.18,13.06,15.45,12.37c1.27-0.69-6.17-9.84-6.17-9.84
		c3.53-3.01,16.34,4.22,23.68,0.76c7.35-3.47,3.92-7.88,3.92-7.88s4.71,2.06,6.92-2.69c2.21-4.75-1.6-8.23-1.6-8.23
		S210.63,141.38,210.11,137.93z"/>
	<path class="st0" d="M383.92,298.99c2.48,0.79,6.17-8.08,6.04-12.53s-1.51-9.1-2.7-10.21c-0.7-0.66-1.51-1.2-2.39-1.59
		c0,0,2.11-2.01,2.3-3.5c0.19-1.49-0.79-7.52-0.56-15.19c0.23-7.67-1.84-12.07-2.67-11.18c-0.83,0.88-5.44,7.42-6.86,11.86
		c-1.41,4.44-1.34,10.73-2.52,15.4c-1.18,4.67-1.16,5.35-1.51,5.13c-0.21-0.13-0.16-0.65-0.44-0.92c0.16-1.28,0.13-2.57-0.09-3.83
		c-0.42-2.44-1.79-5.83-5.9-8.18c-0.1-0.1-0.26-0.09-0.36,0.01c-0.1,0.1-0.09,0.26,0.01,0.36c0.03,0.03,0.06,0.05,0.1,0.06
		c3.16,1.81,5.07,4.44,5.66,7.82c0.21,1.19,0.24,2.4,0.1,3.6c-0.05,0-0.11,0-0.16,0c-0.27-1.21-0.83-3.02-1.94-4.51
		c-2.49-3.34-4.93-3.36-5.04-3.36c-0.13,0.04-0.21,0.18-0.17,0.31c0.02,0.08,0.09,0.15,0.17,0.17c0.02,0,2.3,0.02,4.64,3.16
		c1.04,1.4,1.58,3.14,1.85,4.3c-0.06,0.02-0.16,0.14-0.34,0.64c-0.25,0.76-0.55,1.7-1.24,1.17s-6.63-4.14-12.17-8.03
		s-10.47-5.98-16.7-5.97c-6.23,0.01-8.52-0.04-9,1.18s1.66,5.9,4.83,8.78c3.17,2.88,3.9,6.46,5.17,8.77s5.86,2.97,6.28,3.59
		c0.42,0.62-2.82,3.23-2.48,5.22c0.35,1.99,1.32,2.13,1.32,2.13s-0.91,3.91,0.9,5.18c1.81,1.26,3,1.06,3,1.06s0.35,2.33,1.81,3.38
		c1.46,1.04,3.72,0.06,3.72,0.06s0.7,2.55,3.39,2.65c2.69,0.09,2.84-2.54,2.84-2.54s1.22,2.59,4.52,0.04
		c3.3-2.56,2.96-10.1,5.17-11.02c0,0,2.45,5.53,3.07,5.11s-2.5-9.25-2.06-9.95c0.44-0.7,1.6-0.05,2.19,0.62
		C376.28,288.9,381.44,298.21,383.92,298.99z"/>
	<path class="st0" d="M223.91,59.43c-0.13-0.95-0.42-1.87-0.87-2.71c0,0,2.89-0.25,3.96-1.29c1.07-1.04,4.05-6.34,9-12.16
		s6.06-10.53,4.87-10.35c-1.19,0.18-8.83,2.39-12.7,4.97c-3.86,2.58-7.71,7.51-11.52,10.41c-3.81,2.9-4.22,3.44-4.36,3.06
		c-0.08-0.24,0.28-0.6,0.22-0.99c0.91-0.89,1.69-1.91,2.31-3.03c1.18-2.16,2.23-5.65,0.5-10.03c-0.09-0.11-0.25-0.13-0.35-0.04
		c-0.07,0.05-0.1,0.13-0.09,0.22c1.34,3.37,1.18,6.6-0.46,9.59c-0.58,1.05-1.31,2.02-2.16,2.87c-0.04-0.03-0.08-0.06-0.13-0.09
		c0.54-1.11,1.23-2.86,1.29-4.7c0.14-4.14-1.75-5.67-1.83-5.73c-0.13-0.05-0.28,0.01-0.33,0.14c-0.03,0.08-0.02,0.17,0.03,0.24
		c0.02,0.02,1.77,1.44,1.65,5.34c-0.06,1.73-0.72,3.42-1.24,4.49c-0.06-0.02-0.22,0-0.66,0.29c-0.67,0.42-1.48,0.98-1.69,0.14
		c-0.2-0.84-2.58-7.32-4.48-13.8s-4.42-11.15-9.28-15.01s-6.63-5.34-7.75-4.69c-1.12,0.65-2.37,5.62-1.69,9.83
		c0.68,4.21-0.97,7.45-1.42,10.03c-0.44,2.58,2.72,5.95,2.65,6.69c-0.06,0.74-4.2,0.76-5.17,2.52c-0.97,1.77-0.3,2.48-0.3,2.48
		s-3.14,2.48-2.52,4.58s1.68,2.69,1.68,2.69s-1.17,2.03-0.69,3.75c0.49,1.72,2.85,2.36,2.85,2.36s-1.04,2.42,1.01,4.16
		c2.05,1.74,3.79-0.21,3.79-0.21s-0.66,2.78,3.49,2.83c4.15,0.06,8.58-6.01,10.85-5.36c0,0-1.53,5.82-0.79,5.88
		c0.74,0.06,3.79-8.74,4.57-9.02c0.78-0.27,1.26,0.96,1.32,1.84s-1.73,11.29-0.29,13.44c1.44,2.15,9.81-2.45,12.47-5.99
		C222.34,65.5,224.14,61.02,223.91,59.43z"/>
	<path class="st0" d="M312.98,473.16c-0.25-0.03-0.49,0.13-0.54,0.38l-0.5,0.5c-1.31,0.54-0.42-2.5-0.23-3.77
		c0.19-1.27,0.73-7.54-0.65-11.89c-1.39-4.35-4.85-8.69-6.31-8.88c-1.46-0.19-1.89,5.05-2.15,6.92c-0.27,1.88-4.27,3.96-5.27,5.73
		c-1,1.77,0.12,3.38,0.54,4.58s3.31,3.81,3.31,3.81s-0.27,0.12-1.15,0.12c-0.88,0-3.16-1.58-3.69-1.92
		c-0.54-0.35-1.54-0.42-2.81,0.38c-1.27,0.81-2.78,4.85-3.88,5.27c-1.11,0.42-2.78-0.35-3.38,0.38c-0.61,0.73-0.12,1.42,1.19,0.81
		c1.31-0.62,3.53-0.38,4.35-0.38c0.81,0,1.65,1.85,4.08,2.96c2.42,1.12,9.46,0.19,9.54,1.08c0.08,0.89-2.58,3.16-3.11,3.61
		s-0.35,0.69-0.35,0.69c1.26,0.81,5.54-4.38,6.19-5.23c0.65-0.85,3.16-1.92,4.19-2.61c1.04-0.69,0.76-1.5,0.76-1.5
		C313.44,474,313.44,473.19,312.98,473.16z"/>
	<path class="st0" d="M379.32,337.03c0.79-4.76-0.37-10.51-1.65-11.39c-1.28-0.88-4.2,3.83-5.36,5.47
		c-1.16,1.64-5.92,1.67-7.72,2.85s-1.51,3.24-1.7,4.56c-0.18,1.33,1.27,5.17,1.27,5.17s-0.31-0.02-1.14-0.45
		c-0.83-0.43-2.21-3-2.54-3.59s-1.24-1.14-2.82-0.99c-1.58,0.15-4.94,3.22-6.19,3.08c-1.25-0.14-2.44-1.66-3.37-1.26
		c-0.93,0.4-0.8,1.28,0.73,1.34c1.53,0.05,3.51,1.34,4.27,1.73c0.76,0.39,0.67,2.52,2.41,4.75c1.74,2.23,8.8,4.74,8.45,5.61
		c-0.35,0.87-3.94,1.72-4.67,1.9c-0.73,0.17-0.66,0.48-0.66,0.48c0.81,1.37,7.32-1.45,8.34-1.93s3.89-0.29,5.2-0.44
		c1.31-0.15,1.45-1.04,1.45-1.04c0.42-0.02,0.81-0.77,0.39-1.03c-0.22-0.16-0.53-0.11-0.69,0.1l-0.71,0.23
		c-1.49-0.12,0.81-2.55,1.6-3.65C375.01,347.43,378.53,341.78,379.32,337.03z"/>
	<path class="st0" d="M274.59,189.28c-2.02-0.76-4.74-8.09-7.04-9.56c-2.3-1.47-4.11-1.33-5.09-0.7c-0.98,0.63-5.09,3.49-6.7,3.49
		c-1.61,0-2.09-0.21-2.09-0.21s5.23-4.74,6-6.91c0.77-2.16,2.79-5.09,0.98-8.3c-1.81-3.21-9.07-6.97-9.56-10.39
		c-0.49-3.42-1.26-12.9-3.9-12.55c-2.64,0.35-8.93,8.23-11.44,16.11s-1.53,19.25-1.19,21.55c0.35,2.3,1.95,7.81-0.42,6.84
		l-0.91-0.91c-0.08-0.41-0.44-0.7-0.86-0.7c-2.92-2.62-4.84-6.18-5.41-10.06c-0.01-0.14-0.13-0.24-0.27-0.23
		c-0.14,0.01-0.24,0.13-0.23,0.27c0.57,3.92,2.48,7.53,5.39,10.22c-0.02,0.02-0.04,0.05-0.06,0.08c-6.73-2.67-7.64-9.24-7.65-9.31
		c-0.02-0.14-0.14-0.24-0.28-0.22c-0.14,0.02-0.24,0.14-0.22,0.28c0,0.07,0.95,6.95,7.98,9.72c-0.06,0.44,0.1,0.95,0.43,1.13
		c0,0-0.49,1.46,1.4,2.72c1.88,1.26,6.42,3.21,7.6,4.74c1.19,1.53,8.93,10.95,11.23,9.49c0,0,0.35-0.42-0.63-1.26
		c-0.98-0.84-5.79-4.95-5.65-6.56c0.14-1.61,12.9,0.07,17.3-1.95c4.39-2.02,5.93-5.37,7.4-5.37s5.51-0.42,7.88,0.7
		c2.37,1.12,3.28-0.14,2.16-1.46S276.61,190.05,274.59,189.28z"/>
	<path class="st0" d="M111.96,184.91c-1.62-0.58-3.48,2.12-5.6,2.47c-2.11,0.36-8.1-4.54-10.8-4.64c-2.7-0.1-4.18,0.93-4.7,1.94
		c-0.52,1.01-2.61,5.53-3.98,6.34c-1.37,0.8-1.89,0.87-1.89,0.87s2.1-6.67,1.67-8.9c-0.43-2.23-0.16-5.75-3.32-7.57
		c-3.16-1.82-11.24-1.43-13.37-4.1s-7.52-10.4-9.62-8.78c-2.09,1.63-3.52,11.5-1.72,19.49s8.31,17.22,9.76,19.01s5.58,5.7,3.06,6.06
		l-1.23-0.32c-0.28-0.31-0.73-0.38-1.08-0.17c-3.81-0.78-7.23-2.86-9.66-5.89c-0.1-0.1-0.25-0.11-0.36-0.01
		c-0.08,0.08-0.1,0.2-0.05,0.3c2.46,3.06,5.89,5.19,9.73,6.02c-0.01,0.03-0.01,0.06-0.02,0.1c-7.09,1.09-11.15-4.08-11.19-4.13
		c-0.1-0.1-0.26-0.09-0.36,0.01c-0.08,0.08-0.09,0.2-0.04,0.3c0.04,0.06,4.29,5.47,11.68,4.32c0.17,0.4,0.56,0.76,0.94,0.76
		c0,0,0.32,1.5,2.55,1.63c2.24,0.13,7.09-0.47,8.87,0.25c1.78,0.72,13.11,4.89,14.34,2.49c0,0,0.09-0.53-1.16-0.76
		c-1.25-0.22-7.42-1.34-8.11-2.78s11.06-6.39,13.81-10.32s2.38-7.55,3.63-8.29c1.25-0.73,4.5-3.11,7.09-3.34
		C113.44,187.03,113.58,185.49,111.96,184.91z"/>
	<path class="st0" d="M289.65,145.62c0.3-1.72-6.65-5.99-5.48-11.02c1.18-5.03,6.72-4.96,10.45-3.55c0,0-1.53-3.59,0-5.41
		c1.53-1.82,3.75-3.32,2.12-5.6c-1.63-2.28-18.22-19.53-14.31-24.62s12.69,9,14.82,6.95c2.13-2.05-11.86-8.94-9.22-12.77
		c2.65-3.83,13.45,1.24,19.02,5.2c5.57,3.97,6.73,6.2,8.45,6.5s3.51-2.07,4.89-1.42c0.86,0.41,1.62,1,2.23,1.72
		c0,0-0.92-9.22,4.1-11.26s11.36,2.8,13.7,3.22c2.34,0.42,2.78-3.77-1.35-4.69c-4.13-0.92-12.62-1.19-14.39-3.2s1.61-4.15,1.61-4.15
		s-5.66-1.98-3.87-6.89c0,0-4.84,0.94-6.62-4.63c0,0-2.37,1.09-4.17,0.25s-1.58-2.78-2.68-2.95c-1.1-0.17-8.65,1.86-8.76-0.06
		s4.2-1.75,5.51-7.05c1.3-5.3-4.44-18.65-9.56-18.17c0,0,1.43-3.05-0.62-5.53c-2.05-2.48-4.41-1.74-4.41-1.74s0.65-3.92-3.01-5.47
		c-3.67-1.55-10.73,14.23-10.64,23.4c0.09,9.17,3.44,25.45,1.56,26.93c-1.88,1.48-3.05-1.43-3.05-1.43
		c-0.64-0.34-1.34-0.54-2.06-0.59c-7-6.52-5.08-14.32-5.05-14.41c0.05-0.18-0.06-0.37-0.25-0.42c-0.18-0.05-0.37,0.06-0.42,0.25
		c-0.02,0.08-1.99,7.99,4.86,14.72c-0.04,0.01-0.07,0.03-0.11,0.04c-0.04,0.02-0.03,0.09-0.06,0.23c-7.4-6.19-15.1-3.43-15.18-3.4
		c-0.18,0.07-0.27,0.27-0.2,0.45c0.07,0.18,0.27,0.27,0.45,0.2c0.08-0.03,7.62-2.71,14.79,3.53c-0.07,0.5-0.08,1.06,0.13,1.32
		c0.42,0.54,3.47,1.97,3.09,3.14c-0.38,1.17-1.98,2.78-5.85,1.65c-3.86-1.12-25.79-1.96-35.79,3.16c-10,5.11-11.45,10.01-9.9,11.75
		s4.8,0.22,4.82,1.25c0.03,1.03-0.54,2.96,1.89,4.27c2.43,1.31,3.64,0.53,3.64,0.53s0.6,1.97,2.4,2.81s2.35,0.76,2.35,0.76
		s6.49,4.9,11.45,3.68c4.96-1.22,9.69-4.08,11-6.16c0,0-0.38,14.86,2.24,15.76c2.62,0.89,4.26,0.65,4.09,4.62
		c0,0,3.94-1.19,5.69,0.47c1.75,1.67,2.37,4.32,2.37,4.32s1.33-1.74,3.69-0.3c2.36,1.45,2.69,11.57,5.55,13.76
		C288.51,147.75,289.35,147.33,289.65,145.62z"/>
	<path class="st0" d="M325.78,229.06c2.43,0.2,3.79-0.37,4.48,3.07c0,0,3.11-1.87,4.96-0.82c1.86,1.05,2.95,3.18,2.95,3.18
		s0.76-1.77,3.08-1.05c2.33,0.72,4.78,9.3,7.7,10.55s3.57,0.69,3.46-0.84c-0.12-1.53-6.97-3.69-7.05-8.23
		c-0.08-4.54,4.67-5.68,8.16-5.28c0,0-2.08-2.74-1.16-4.62s2.49-3.64,0.61-5.24c-1.89-1.6-19.76-12.75-17.52-17.94
		s12.76,4.95,14.15,2.75c1.39-2.2-12.05-5.08-10.62-8.92c1.43-3.84,11.75-1.84,17.36,0.35c5.61,2.19,7.07,3.84,8.61,3.73
		c1.54-0.12,2.55-2.52,3.87-2.27c0.82,0.17,1.59,0.51,2.27,0.99c0,0-2.78-7.67,1.08-10.5c3.85-2.82,10.3-0.06,12.39-0.2
		c2.09-0.15,1.56-3.81-2.16-3.71c-3.72,0.1-11.04,1.7-12.97,0.37s0.48-3.89,0.48-3.89s-5.26-0.47-4.8-5.05c0,0-3.93,1.85-6.65-2.52
		c0,0-1.79,1.44-3.51,1.1c-1.72-0.33-1.94-2.02-2.92-1.94c-0.98,0.08-6.98,3.45-7.49,1.84c-0.51-1.61,3.22-2.41,3.2-7.2
		c-0.03-4.8-7.8-14.96-12.07-13.46c0,0,0.57-2.91-1.72-4.59c-2.28-1.68-4.15-0.53-4.15-0.53s-0.29-3.49-3.75-4.02
		s-6.1,14.46-4.04,22.27c2.06,7.81,8.42,20.98,7.13,22.66s-2.91-0.57-2.91-0.57c-0.62-0.15-1.26-0.17-1.88-0.06
		c-7.38-4.06-7.42-11.14-7.42-11.21c0-0.17-0.14-0.3-0.3-0.3s-0.3,0.14-0.3,0.3l0,0c0,0.08,0.02,7.25,7.32,11.52
		c-0.03,0.02-0.06,0.04-0.09,0.06s0,0.08,0,0.21c-7.65-3.7-13.63,0.32-13.69,0.36c-0.14,0.09-0.18,0.28-0.08,0.42
		c0.09,0.14,0.28,0.18,0.42,0.08l0,0c0.06-0.04,5.92-3.95,13.39-0.16c0.05,0.44,0.16,0.92,0.39,1.1c0.48,0.37,3.39,0.93,3.31,2.02
		c-0.07,1.09-1.09,2.81-4.63,2.67c-3.54-0.14-22.44,3.88-29.88,10.4s-7.63,11.01-5.93,12.16c1.7,1.15,4.14-0.84,4.39,0.03
		s0.17,2.64,2.52,3.24c2.35,0.6,3.22-0.35,3.22-0.35s0.93,1.55,2.65,1.89s2.17,0.15,2.17,0.15s6.6,2.79,10.57,0.68
		c3.98-2.11,7.39-5.55,8.08-7.63C320.46,216.09,323.34,228.86,325.78,229.06z"/>
</g>
</svg>
